#!OML:ASF H:\ColoradoDance\Project 1\Capture day 1\Session 8\male.ASF
:FULLY-SPECIFIED
:DEGREES
17
upperback -2.035180 7.765150 7.915940
rfoot 211.552994 146.009003
lradius 18.175800
lthumb -22.869499 77.664597
rradius 25.606001
lwrist -1.647670
rhand -21.518999 -47.900200
rhumerus -4.761020 -33.946602 5.021130
lowerneck -8.061500 1.191790 7.604770
lhand -50.292198 49.000599
ltibia 25.044800
head 6.971080 0.648004 0.731948
rwrist 10.464700
lfingers 7.125020
rtoes 33.358398
lowerback 2.886100 5.266090 10.046400
rfingers 7.125020
lclavicle -0.000000 -0.000000
upperneck 18.236300 -0.770813 6.363440
rfemur 17.949100 10.410600 5.336060
thorax -3.563910 3.713370 2.261910
rclavicle -0.000000 -0.000000
rtibia 10.871500
lfoot -45.112598 41.492100
lhumerus -53.616402 19.913601 6.594100
rthumb 4.873190 -77.824203
root 20.348200 19.796400 19.406700 34.944302 -8.538310 -39.314301
ltoes 34.159801
lfemur -31.856600 -8.278200 21.855600
18
upperback -3.651230 5.552510 5.034570
rfoot 218.848007 155.621002
lradius 20.128099
lthumb 6.086220 49.039001
rradius 28.464100
lwrist -5.858760
rhand -27.226200 -50.924400
rhumerus -9.830480 -23.710100 10.345200
lowerneck -7.824140 8.062210 13.626600
lhand -20.262699 19.146400
ltibia 27.653099
head 7.021540 5.032400 0.050120
rwrist 3.925560
lfingers 7.125020
rtoes 28.692600
lowerback 1.619560 3.754110 8.683410
rfingers 7.125020
lclavicle 0.000000 0.000000
upperneck 17.179300 8.030660 4.722530
rfemur 17.984200 7.869760 7.775450
thorax -4.418640 2.543240 0.124149
rclavicle 0.000000 0.000000
rtibia 6.562800
lfoot -65.682800 47.597198
lhumerus -55.938599 18.760900 39.932098
rthumb -0.638535 -80.903198
root 20.333599 19.776699 19.593201 47.123699 -15.921900 -46.983601
ltoes 36.402302
lfemur -33.706600 -8.707480 28.795099
19
upperback -4.113300 1.649870 3.685840
rfoot 217.205994 161.298004
lradius 46.374100
lthumb 23.635099 31.442499
rradius 28.758600
lwrist 26.388500
rhand -26.883699 -53.794300
rhumerus -25.053301 -20.252399 15.971600
lowerneck -6.419680 12.182400 14.286900
lhand -2.039940 2.875310
ltibia 21.287001
head 4.225410 7.717100 -0.463735
rwrist 2.047200
lfingers 7.125020
rtoes 27.215200
lowerback -1.956120 1.202180 6.507580
rfingers 7.125020
lclavicle -0.000000 0.000000
upperneck 7.812220 14.606000 2.572980
rfemur 9.697610 4.697340 9.093460
thorax -3.086710 0.667930 0.156982
rclavicle -0.000000 0.000000
rtibia 13.810700
lfoot -86.160698 34.854099
lhumerus -43.501900 -19.791401 73.452400
rthumb -0.307739 -83.773804
root 20.325399 19.799999 19.273001 60.273800 -15.794600 -49.855999
ltoes 39.260399
lfemur -37.951500 -14.923500 41.474201
20
upperback -4.262400 0.821919 2.941640
rfoot 215.875000 161.276993
lradius 59.219799
lthumb 25.072399 10.143600
rradius 24.379601
lwrist 36.710499
rhand -23.918200 -53.849400
rhumerus -45.980999 -20.709400 22.400299
lowerneck -3.005870 12.797900 12.914500
lhand -0.540663 -18.230499
ltibia 16.606400
head 0.615252 8.297810 -1.390670
rwrist -1.469910
lfingers 7.125020
rtoes 27.744301
lowerback -7.322560 0.905411 4.951250
rfingers 7.125020
lclavicle 0.000000 -0.000000
upperneck -2.728900 16.750299 0.934711
rfemur -0.458473 4.401880 11.616400
thorax -0.279061 0.329823 0.314306
rclavicle 0.000000 -0.000000
rtibia 21.554600
lfoot -69.550400 40.887798
lhumerus -22.150900 -41.694401 51.397701
rthumb 2.556370 -83.813797
root 20.552900 19.678101 19.038099 72.572998 -13.951900 -50.712799
ltoes 37.497002
lfemur -43.219299 2.335890 42.108799
21
upperback -1.292410 1.838630 2.592670
rfoot 216.625000 164.102005
lradius 61.470901
lthumb 24.039101 10.259300
rradius 22.371599
lwrist 44.510399
rhand -25.605499 -51.888302
rhumerus -59.005001 -14.973000 13.502000
lowerneck -3.624380 11.725300 11.317800
lhand -1.618710 -18.255199
ltibia 25.188700
head -0.270144 7.564490 -1.834370
rwrist 6.612020
lfingers 7.125020
rtoes 26.475901
lowerback -7.931690 1.681260 3.529070
rfingers 7.125020
lclavicle 0.000000 -0.000000
upperneck -5.681650 15.424800 -0.818438
rfemur -4.406770 2.063550 12.713700
thorax 3.133720 0.935326 0.893846
rclavicle 0.000000 -0.000000
rtibia 23.772600
lfoot -14.999900 27.216400
lhumerus 1.681950 -29.041800 30.410101
rthumb 0.926786 -81.865997
root 21.008400 19.382999 18.770399 77.767097 -12.007600 -49.136200
ltoes -3.434700
lfemur -56.273201 23.739500 31.079300
22
upperback 2.605460 3.338790 0.243382
rfoot 216.554993 165.542999
lradius 60.144199
lthumb 23.535101 10.718600
rradius 23.270500
lwrist 48.436298
rhand -24.410299 -51.218300
rhumerus -65.571899 -17.964001 -2.940530
lowerneck -4.375380 10.530500 13.378100
lhand -2.144210 -17.861500
ltibia 22.014999
head -0.011272 6.635570 -3.105170
rwrist 7.500050
lfingers 7.125020
rtoes 26.470600
lowerback -2.155210 2.592370 2.167460
rfingers 7.125020
lclavicle -0.000000 -0.000000
upperneck -6.088190 13.599100 -3.593370
rfemur -13.080900 0.615607 12.538400
thorax 4.001950 1.708140 -0.772000
rclavicle -0.000000 -0.000000
rtibia 24.065399
lfoot -44.335201 53.603199
lhumerus 20.291401 -12.694900 19.205400
rthumb 2.081080 -81.187897
root 21.707899 19.331900 18.565901 82.730698 -11.008600 -45.498001
ltoes 17.304501
lfemur -60.566700 15.295100 37.995201
23
upperback 5.156350 4.736830 -0.303822
rfoot 218.684998 165.438995
lradius 58.987499
lthumb 24.336800 10.355500
rradius 20.634899
lwrist 49.801399
rhand -24.123301 -52.248901
rhumerus -70.896004 -16.931499 -1.918130
lowerneck -6.576760 10.664800 12.998200
lhand -1.308170 -18.119301
ltibia 37.759701
head 0.782873 6.625700 -2.726340
rwrist 11.740700
lfingers 7.125020
rtoes 27.615400
lowerback 0.371623 3.638820 0.681759
rfingers 7.125020
lclavicle -0.000000 -0.000000
upperneck -4.591510 13.473900 -3.158860
rfemur -10.644900 -0.415832 14.646300
thorax 5.202120 2.337870 -0.498752
rclavicle -0.000000 -0.000000
rtibia 23.737301
lfoot -17.139601 29.277700
lhumerus 31.277599 -2.358550 14.595100
rthumb 2.358310 -82.215599
root 21.983299 18.594400 18.563900 85.170799 -9.422210 -46.453400
ltoes 14.497500
lfemur -87.085999 36.201698 5.956170
24
upperback 7.309270 4.555830 -0.326823
rfoot 218.876999 166.235992
lradius 60.575802
lthumb 23.700500 9.965800
rradius 18.389799
lwrist 49.612301
rhand -23.843800 -51.423801
rhumerus -74.867401 -16.473101 -2.121430
lowerneck -8.586340 10.251700 10.376200
lhand -1.971740 -18.593000
ltibia 35.465900
head 1.340770 6.392730 -2.127700
rwrist 16.388800
lfingers 7.125020
rtoes 27.606100
lowerback 2.239580 3.557510 0.604080
rfingers 7.125020
lclavicle -0.000000 0.000000
upperneck -3.197320 12.875800 -2.983740
rfemur -11.548300 -0.002457 16.821301
thorax 6.415720 2.215310 -0.530276
rclavicle -0.000000 0.000000
rtibia 23.493700
lfoot -15.054400 27.953699
lhumerus 35.602200 4.653780 14.179400
rthumb 2.628210 -81.387398
root 22.160500 18.599100 18.445299 86.074501 -7.713760 -44.214500
ltoes 13.383800
lfemur -88.048203 34.181900 7.700490
25
upperback 8.284540 3.369850 -0.305809
rfoot 218.177002 166.636002
lradius 61.034698
lthumb 23.365801 9.793610
rradius 18.759800
lwrist 48.848301
rhand -22.097500 -48.516399
rhumerus -72.630501 -18.250200 -4.592030
lowerneck -6.730780 9.948120 11.414600
lhand -2.320700 -18.808100
ltibia 29.120199
head 1.119280 6.237210 -3.037030
rwrist 14.729300
lfingers 7.125020
rtoes 27.750200
lowerback 3.992220 2.671960 -0.441202
rfingers 7.125020
lclavicle 0.000000 -0.000000
upperneck -3.543340 12.601200 -4.854580
rfemur -14.861400 0.695293 16.074900
thorax 6.373000 1.564800 -0.028932
rclavicle 0.000000 -0.000000
rtibia 23.341801
lfoot -11.364300 27.345600
lhumerus 38.160400 7.227040 16.261000
rthumb 4.314580 -78.452400
root 22.263901 18.739799 18.191299 85.180000 -7.142970 -39.461700
ltoes -1.747700
lfemur -78.338402 25.629200 23.349701
26
upperback 9.916530 3.937230 -0.863481
rfoot 216.962997 167.994995
lradius 59.205399
lthumb 23.728399 8.748770
rradius 19.773300
lwrist 46.197498
rhand -22.647800 -49.558399
rhumerus -65.613602 -23.209801 -7.252220
lowerneck -6.444670 7.893510 12.350700
lhand -1.942630 -19.806400
ltibia 29.960300
head 2.111570 4.851340 -3.216690
rwrist 13.060500
lfingers 7.125020
rtoes 28.032499
lowerback 3.989160 3.098370 -0.810051
rfingers 7.125020
lclavicle 0.000000 -0.000000
upperneck 0.177362 9.738220 -4.493370
rfemur -20.415600 4.319910 17.081400
thorax 8.178300 1.809560 -0.350808
rclavicle 0.000000 -0.000000
rtibia 25.504299
lfoot -17.323000 34.841202
lhumerus 44.532799 4.888830 22.848600
rthumb 3.783220 -79.504501
root 22.249599 18.824400 18.278999 81.864998 -8.143020 -34.051399
ltoes 14.140200
lfemur -77.745399 15.585100 28.548800
27
upperback 11.432400 2.651100 -2.104930
rfoot 206.925995 171.440994
lradius 56.845001
lthumb 25.394899 6.575870
rradius 21.120300
lwrist 43.656300
rhand -23.316299 -47.342602
rhumerus -59.060902 -24.178600 -8.503960
lowerneck -4.836550 6.582180 11.250700
lhand -0.204067 -21.752800
ltibia 35.399300
head 3.574030 4.143090 -2.205640
rwrist 12.751600
lfingers 7.125020
rtoes 23.538000
lowerback 5.402840 2.061820 0.252062
rfingers 7.125020
lclavicle -0.000000 0.000000
upperneck 7.427000 8.028870 -2.665620
rfemur -34.548599 -1.470560 31.190100
thorax 9.177980 1.343710 -2.322680
rclavicle -0.000000 0.000000
rtibia 33.993900
lfoot -14.485100 28.043800
lhumerus 44.868401 -5.682370 27.396500
rthumb 3.137660 -77.299301
root 21.982901 19.055599 18.593901 70.090401 -9.655480 -27.542500
ltoes 3.554390
lfemur -76.467499 6.754970 18.959000
